<svg width="405" height="405" viewBox="0 0 405 405" fill="none" xmlns="http://www.w3.org/2000/svg">
<g clip-path="url(#clip0_12_14)">
<path d="M348.757 110.593C345.592 109.035 344.23 112.004 342.38 113.512C341.746 113.998 341.21 114.63 340.676 115.213C336.05 120.177 330.645 123.437 323.585 123.048C313.263 122.465 304.448 125.724 296.658 133.655C295.003 123.875 289.501 118.034 281.127 114.289C276.745 112.343 272.314 110.395 269.246 106.162C267.104 103.146 266.519 99.7878 265.448 96.4787C264.767 94.4849 264.084 92.4402 261.795 92.0984C259.312 91.7091 258.337 93.8006 257.365 95.5545C253.469 102.708 251.96 110.591 252.107 118.57C252.449 136.527 259.995 150.832 274.993 161.003C276.696 162.172 277.134 163.339 276.6 165.042C275.577 168.547 274.36 171.952 273.289 175.456C272.607 177.695 271.582 178.181 269.198 177.209C260.969 173.755 253.859 168.643 247.578 162.465C236.914 152.099 227.274 140.664 215.246 131.709C212.463 129.641 209.604 127.677 206.676 125.821C194.406 113.851 208.284 104.02 211.497 102.854C214.856 101.636 212.666 97.4522 201.806 97.5007C190.948 97.5492 181.014 101.198 168.356 106.065C166.505 106.796 164.558 107.331 162.561 107.767C151.07 105.577 139.14 105.091 126.675 106.501C103.205 109.128 84.4598 120.272 70.6803 139.299C54.1259 162.174 50.2294 188.158 55.0016 215.263C60.0166 243.826 74.5262 267.476 96.8273 285.968C119.956 305.138 146.591 314.531 176.973 312.731C195.427 311.661 215.976 309.18 239.152 289.47C244.996 292.389 251.13 293.558 261.307 294.434C269.147 295.165 276.694 294.045 282.537 292.829C291.692 290.883 291.059 282.367 287.747 280.811C260.92 268.257 266.809 273.366 261.454 269.23C275.087 253.026 295.636 236.19 303.669 181.639C304.302 177.309 303.765 174.584 303.669 171.08C303.621 168.941 304.107 168.113 306.542 167.869C313.261 167.089 319.785 165.242 325.775 161.932C343.158 152.394 350.17 136.725 351.825 117.942C352.068 115.072 351.777 112.103 348.757 110.595V110.593ZM197.279 279.639C171.277 259.107 158.667 252.341 153.457 252.633C148.588 252.926 149.464 258.522 150.535 262.171C151.654 265.772 153.117 268.253 155.161 271.416C156.573 273.509 157.547 276.622 153.75 278.96C145.375 284.165 130.816 277.208 130.133 276.866C113.189 266.842 99.0192 253.607 89.0366 235.505C79.3965 218.083 73.7961 199.399 72.8722 179.447C72.6286 174.631 74.0414 172.925 78.812 172.051C85.0926 170.882 91.5687 170.638 97.8501 171.562C124.386 175.456 146.979 187.378 165.92 206.258C176.73 217.011 184.91 229.859 193.335 242.413C202.294 255.746 211.935 268.447 224.205 278.861C228.539 282.51 231.995 285.284 235.307 287.329C225.325 288.447 208.671 288.691 197.279 279.639ZM209.856 198.17C210.268 196.492 211.771 195.263 213.591 195.263C214.04 195.264 214.485 195.346 214.905 195.505C215.441 195.701 215.927 195.993 216.317 196.429C216.998 197.112 217.388 198.085 217.388 199.106C217.388 201.248 215.685 202.95 213.542 202.95C212.638 202.958 211.761 202.639 211.073 202.05C210.384 201.461 209.931 200.642 209.795 199.744C209.71 199.22 209.731 198.685 209.856 198.17ZM247.198 219.559C245.136 220.35 243.085 220.971 241.101 221.053C237.4 221.246 233.36 219.738 231.169 217.889C227.762 215.019 225.327 213.414 224.304 208.4C223.866 206.258 224.109 202.95 224.499 201.052C225.375 196.964 224.401 194.336 221.529 191.952C219.193 190.006 216.221 189.471 212.959 189.471C211.742 189.471 210.623 188.936 209.795 188.499C208.431 187.818 207.312 186.114 208.383 184.021C208.724 183.341 210.38 181.686 210.77 181.395C215.2 178.864 220.314 179.691 225.035 181.589C229.417 183.39 232.729 186.698 237.501 191.369C242.369 197.013 243.246 198.571 246.022 202.804C248.214 206.113 250.21 209.52 251.574 213.412C252.267 215.447 251.63 217.178 249.722 218.4C248.946 218.897 248.054 219.23 247.198 219.559Z" fill="#4D6BFE"/>
</g>
<defs>
<clipPath id="clip0_12_14">
<rect width="405" height="405" fill="white"/>
</clipPath>
</defs>
</svg>
